<?xml version="1.0" standalone="no"?><!DOCTYPE svg PUBLIC "-//W3C//DTD SVG 1.1//EN" "http://www.w3.org/Graphics/SVG/1.1/DTD/svg11.dtd"><svg t="1717512178540" class="icon" viewBox="0 0 1024 1024" version="1.1" xmlns="http://www.w3.org/2000/svg" p-id="10882" xmlns:xlink="http://www.w3.org/1999/xlink" width="200" height="200"><path d="M512 0c282.770286 0 512 229.229714 512 512s-229.229714 512-512 512S0 794.770286 0 512 229.229714 0 512 0z m0 36.571429C249.417143 36.571429 36.571429 249.417143 36.571429 512s212.845714 475.428571 475.428571 475.428571 475.428571-212.845714 475.428571-475.428571S774.582857 36.571429 512 36.571429z" fill="#B440C4" p-id="10883"></path><path d="M221.147429 551.094857H219.428571v223.744c0 16.201143 13.238857 29.44 29.44 29.44h230.4c-2.011429-139.849143-116.809143-253.184-258.121142-253.184z m0-184.576H219.428571v95.158857c190.061714 0.841143 344.612571 153.709714 346.660572 342.601143h98.633143c-1.828571-241.664-199.899429-437.76-443.611429-437.76zM804.571429 775.131429V573.074286A630.272 630.272 0 0 0 435.419429 219.428571H248.868571A29.549714 29.549714 0 0 0 219.428571 248.868571v28.525715c292.461714 0.841143 530.358857 236.470857 532.077715 527.177143h23.625143a29.549714 29.549714 0 0 0 29.44-29.44zM727.588571 301.056c27.062857 27.062857 54.747429 61.44 76.982858 91.684571V248.576A29.037714 29.037714 0 0 0 775.424 219.428571h-148.48c34.596571 23.954286 70.326857 51.309714 100.644571 81.627429z" fill="#B440C4" p-id="10884"></path></svg>