<?xml version="1.0" standalone="no"?><!DOCTYPE svg PUBLIC "-//W3C//DTD SVG 1.1//EN" "http://www.w3.org/Graphics/SVG/1.1/DTD/svg11.dtd"><svg t="1717511903542" class="icon" viewBox="0 0 1024 1024" version="1.1" xmlns="http://www.w3.org/2000/svg" p-id="4275" xmlns:xlink="http://www.w3.org/1999/xlink" width="200" height="200"><path d="M928 853.72H684.83v-0.16C653.6 850 628.05 811 628.05 765.32A121.82 121.82 0 0 1 629 750h259.51a72 72 0 0 0 72-72V170.28a72 72 0 0 0-72-72h-753a72 72 0 0 0-72 72V678a72 72 0 0 0 72 72h259.36a121.83 121.83 0 0 1 1 15.28c0 45.7-25.54 84.64-56.78 88.24v0.16H96a32.49 32.49 0 0 0-32.48 32.49v7A32.48 32.48 0 0 0 96 925.72h832a32.48 32.48 0 0 0 32.48-32.48v-7A32.49 32.49 0 0 0 928 853.72zM135.49 678V170.28h753V678h-753z m331.75 72h89.41c-0.39 5.05-0.6 10.15-0.6 15.28 0 31.83 7.66 62.4 21.88 88.4H446c14.22-26 21.87-56.57 21.87-88.4q-0.04-7.65-0.63-15.28z" p-id="4276" fill="#1296db"></path><path d="M358.91 390.07c0-39.25-19.75-53.75-66.75-53.75h-54v173.5h32.75v-65.5h22.5l43.25 65.5h38.5l-49.75-69.25c23-6.25 33.5-21.25 33.5-50.5z m-71.25 29.25h-16.75v-56.5h16.75c27.75 0 38.5 4.75 38.5 27.25 0 24.75-10.75 29.25-38.5 29.25zM430.41 434.07h65v-27.25h-65v-42h70v-28.5H397.66v173.5h107.25v-28.75h-74.5v-47zM595.66 406.57c-27.5-6.75-31.5-10.75-31.5-24 0-17.25 9.5-21.5 30.5-21.5 15 0 34.25 3.25 43.25 6.5v-27.75c-9-3.25-25.5-6.25-44.25-6.25-40.25 0-61.5 14.5-61.5 49.75 0 30.5 11.5 40.75 48 49.25 28.5 7.25 34.25 11.75 34.25 28 0 17.75-9.5 23.5-33.5 23.5-18.25 0-39.5-3.25-50-7.25v29.25c9.75 3.25 30.5 6.25 51 6.25 45.25 0 65-17.25 65-51.25 0-33-10.75-44.5-51.25-54.5zM661.16 365.07h47v144.75h32.75V365.07h47.25v-28.75h-127v28.75z" p-id="4277" fill="#1296db"></path></svg>