<?xml version="1.0" standalone="no"?><!DOCTYPE svg PUBLIC "-//W3C//DTD SVG 1.1//EN" "http://www.w3.org/Graphics/SVG/1.1/DTD/svg11.dtd"><svg t="1717512317285" class="icon" viewBox="0 0 1024 1024" version="1.1" xmlns="http://www.w3.org/2000/svg" p-id="13846" data-spm-anchor-id="a313x.search_index.0.i7.71fc3a81ySB5IR" xmlns:xlink="http://www.w3.org/1999/xlink" width="200" height="200"><path d="M544 621.2608l-149.5808-147.5072 87.2448-86.0416-43.6224-43.008-87.2448 86.016-87.2192-86.016-105.9328 104.448a279.8848 279.8848 0 0 0-24.9088 374.9632L25.6 929.7664 69.2224 972.8l107.136-99.5328c49.8432 43.008 112.1536 61.4656 174.4384 61.4656 74.8032 0 149.5808-30.72 205.6704-86.0416l105.9328-104.4992-80.9984-79.8976 93.44-92.1856-37.376-43.0592-93.4656 92.2112z m-186.9312 245.8624c-56.1152 0-112.1792-18.432-149.5552-61.44l-6.2464-6.144c-80.9984-79.9232-81.0496-215.168 6.1952-301.2096l56.1152-55.3216L568.9344 744.192l-56.064 55.3472c-43.648 43.008-99.7376 67.584-155.8016 67.584zM998.4 68.6336L954.7776 25.6l-74.24 67.0464c-49.92-43.008-112.1536-61.44-174.5152-61.44-74.7776 0-149.5552 30.72-205.6448 86.0416l-105.9584 98.3552L799.5392 615.168l99.712-98.3552A279.8848 279.8848 0 0 0 924.16 141.824L998.4 68.608z m-149.0176 398.976l-49.8432 49.152-305.408-301.184 49.8688-49.152c43.6224-43.008 99.6864-67.6352 155.8016-67.6352 56.064 0 112.128 18.4576 149.504 61.44l6.2464 6.1952c87.296 79.872 81.0496 215.0912-6.2208 301.1584l0.0512 0.0256z" fill="#00C188" p-id="13847"></path></svg>