<?xml version="1.0" standalone="no"?><!DOCTYPE svg PUBLIC "-//W3C//DTD SVG 1.1//EN" "http://www.w3.org/Graphics/SVG/1.1/DTD/svg11.dtd"><svg t="1717512037864" class="icon" viewBox="0 0 1024 1024" version="1.1" xmlns="http://www.w3.org/2000/svg" p-id="5704" xmlns:xlink="http://www.w3.org/1999/xlink" width="200" height="200"><path d="M92.489387 327.296a16.768 16.768 0 0 0-23.68-23.722667L4.937387 367.445333a16.768 16.768 0 0 0 0 23.765334l63.872 63.872a16.768 16.768 0 1 0 23.68-23.722667l-35.2-35.242667h173.952l-22.570667 22.570667a16.810667 16.810667 0 0 0 23.722667 23.722667l51.157333-51.2a16.768 16.768 0 0 0 0-23.765334l-51.2-51.2a16.768 16.768 0 1 0-23.68 23.722667l22.570667 22.613333H57.289387l35.2-35.285333zM914.33472 725.333333c-77.312 0-124.928-60.117333-124.928-158.464 0-97.706667 48.384-158.208 123.989333-158.208 49.493333 0 88.576 26.538667 106.197334 71.381334 2.986667 6.997333 4.437333 14.208 4.437333 20.565333 0 14.677333-8.32 24.021333-21.12 24.021333-10.922667 0-18.176-5.973333-23.338667-19.328-12.416-32.938667-36.693333-50.133333-65.792-50.133333-45.994667 0-75.434667 43.349333-75.434666 111.701333 0 68.821333 29.269333 111.957333 75.605333 111.957334 30.592 0 54.101333-15.317333 66.346667-47.573334 4.821333-12.544 10.922667-17.621333 21.333333-17.621333 13.141333 0 22.186667 9.984 22.186667 24.405333 0 6.997333-1.450667 13.397333-4.437334 20.608-17.066667 41.642667-55.04 66.688-105.045333 66.688zM332.233387 696.021333c0 17.834667 9.088 28.458667 23.893333 28.458667 14.848 0 23.893333-10.624 23.893333-28.458667v-91.093333h53.589334l47.616 99.84c7.424 15.018667 12.970667 19.712 24.277333 19.712 13.696 0 24.106667-10.624 24.106667-25.045333a36.565333 36.565333 0 0 0-5.205334-18.901334l-42.24-84.949333c30.933333-13.824 48.725333-46.506667 48.725334-86.485333 0-58.581333-34.645333-95.36-92.458667-95.36H356.12672c-14.805333 0-23.893333 10.666667-23.893333 28.458666v253.824z m101.717333-133.162666H380.020053v-104.704h53.034667c30.208 0 48.896 19.968 48.896 52.224 0 33.152-17.578667 52.48-48 52.48zM569.417387 695.381333c0 18.048 9.088 28.458667 23.893333 28.458667 15.061333 0 23.936-10.410667 23.936-28.458667v-76.458666h54.101333c54.144 0 92.16-41.386667 92.16-102.570667s-36.906667-102.613333-90.112-102.613333h-80.042666c-14.848 0-23.893333 10.666667-23.893334 28.458666v253.184z m91.178666-120.618666h-43.349333v-116.181334h43.52c34.304 0 54.186667 21.034667 54.186667 57.770667 0 37.12-20.053333 58.410667-54.357334 58.410667zM188.06272 725.333333c-33.28-0.170667-58.88-13.44-70.485333-32.810666a24.448 24.448 0 0 1-3.413334-12.714667c0-9.386667 6.698667-16.341333 17.024-16.341333 5.717333 0 9.813333 2.048 14.933334 7.168 13.568 14.08 25.685333 20.906667 42.24 21.034666 27.733333 0.341333 44.245333-15.786667 44.245333-39.722666v-28.714667h-0.810667c-9.002667 19.370667-29.482667 32.426667-54.4 32.426667-43.605333 0-71.466667-34.986667-71.466666-90.368 0-56.405333 27.562667-90.88 72.277333-90.88 24.746667 0 43.946667 13.226667 53.930667 33.621333h0.64v-12.586667c0-13.952 8.874667-21.589333 20.48-21.589333 11.818667 0 20.352 7.68 20.352 21.589333v156.330667c0 45.354667-32 73.898667-85.546667 73.557333z m1.792-102.613333c26.026667 0 43.093333-21.930667 43.093333-57.088 0-34.986667-17.066667-57.770667-43.093333-57.770667-25.728 0-42.112 22.4-42.112 57.770667 0 35.669333 16.384 57.088 42.112 57.088z" p-id="5705" fill="#379c9c"></path></svg>
