<?xml version="1.0" standalone="no"?><!DOCTYPE svg PUBLIC "-//W3C//DTD SVG 1.1//EN" "http://www.w3.org/Graphics/SVG/1.1/DTD/svg11.dtd"><svg t="1717552892919" class="icon" viewBox="0 0 1024 1024" version="1.1" xmlns="http://www.w3.org/2000/svg" p-id="3800" xmlns:xlink="http://www.w3.org/1999/xlink" width="200" height="200"><path d="M154.013 1.365c0.114 0.91-1.934 1.82-5.462 2.39-18.773 3.3-29.81 6.94-48.924 16.156-36.068 17.408-64.512 45.853-81.92 81.92-9.33 19.456-12.402 28.786-16.384 50.176-1.707 9.557-1.82 711.225 0 721.124 4.551 25.713 7.623 35.27 17.294 55.296 8.989 18.66 17.75 30.947 32.996 46.421 20.025 20.366 43.69 35.271 69.632 43.577 6.258 2.048 12.402 4.096 13.653 4.665 1.252 0.569 168.96 0.796 372.622 0.569 406.415-0.342 371.371 0.227 392.875-6.827 46.194-15.474 85.56-50.972 105.358-95.232 2.048-4.665 4.21-9.33 4.665-10.24 0.91-1.934 3.869-11.947 6.372-21.504 0.91-3.413 2.161-9.444 2.73-13.653 0.57-4.324 1.82-7.965 2.845-8.761 1.479-1.138 1.706-37.774 1.706-356.921 0-307.2-0.227-355.67-1.592-356.125-1.024-0.455-1.935-2.958-2.39-6.144-1.024-8.305-4.437-20.593-10.354-36.864-2.616-7.281-11.036-22.983-17.408-32.312-12.856-19.115-26.624-33.337-44.714-46.422-10.354-7.282-10.354-7.395-24.918-14.677-13.653-6.713-28.785-12.174-38.798-13.881-2.73-0.455-4.323-1.365-4.323-2.39C879.574 0.229 833.494 0 516.623 0c-286.72 0-362.838 0.341-362.61 1.365z m155.306 156.331c2.39 0.683 2.504 1.365 2.504 10.126s-0.114 9.444-2.504 10.126c-4.323 1.138-120.832 0.797-122.652-0.455-1.138-0.682-1.82-3.64-2.048-9.216-0.455-6.94-0.228-8.533 1.593-9.785 1.593-1.137 13.88-1.479 61.212-1.479 32.655 0 60.416 0.342 61.895 0.683z m174.65 2.958c9.443 3.755 16.27 7.623 21.276 12.288 3.072 2.845 3.527 3.755 2.162 4.665-0.91 0.569-38.457 1.024-88.86 1.024-77.825 0-87.382-0.227-88.975-1.82-2.73-2.617-2.503-16.953 0.227-18.66 1.252-0.796 25.26-1.024 74.184-0.796l72.248 0.341 7.737 2.958z m164.636-1.365c1.251 1.251 2.275 3.186 2.275 4.21 0 1.137 0.91 4.55 1.935 7.509 1.706 4.779 1.706 5.575 0.34 6.485-2.275 1.48-101.261 1.48-103.537 0-2.162-1.365-3.072-16.384-1.138-18.773 1.252-1.48 8.306-1.707 49.607-1.707 46.763 0 48.356 0.114 50.518 2.276z m186.71-1.138c1.82 1.024 2.16 2.503 2.16 8.306 0 4.551-0.682 7.964-1.82 9.671l-1.706 2.503h-51.77c-45.283 0-51.768-0.227-52.337-1.707-1.024-2.503 3.982-17.521 6.258-18.773 2.617-1.479 96.37-1.479 99.214 0z m-524.061 47.787v9.67l-62.01 0.342c-70.086 0.342-64.853 1.024-64.853-8.988 0-2.958 0.456-6.713 1.138-8.306l1.138-2.958 62.236 0.227 62.35 0.342v9.67z m213.788-8.078c2.39 2.616 5.803 14.222 4.893 16.611-0.683 1.48-11.492 1.707-100.352 1.707h-99.556l-1.138-2.73c-1.251-3.414-1.251-11.72 0.114-15.247l1.024-2.503h96.484c92.956 0 96.71 0.114 98.531 2.162z m136.192 0.34c2.162 3.983 5.575 15.93 4.893 17.068-0.342 0.455-26.852 0.91-59.051 0.91-65.877 0-59.733 1.024-59.733-9.785 0-11.72-5.462-10.695 57.457-10.695h55.069l1.365 2.503z m175.104 0.456c1.48 3.755 1.48 12.516 0 15.36-1.138 2.048-3.072 2.162-60.53 2.162h-59.164l0.569-2.617c2.503-9.899 3.3-12.63 4.892-15.133l1.82-2.73H835.2l1.138 2.958z m-561.493 38.343c0.341 1.365 0.569 5.917 0.341 9.899l-0.341 7.395h-53.476l-0.341-8.42c-0.228-4.664-0.114-9.101 0.227-10.012 0.456-1.137 5.917-1.479 26.738-1.479h26.283l0.569 2.617z m143.701 7.85l0.341 10.013h-26.055c-18.66 0-26.282-0.341-27.306-1.365-1.707-1.707-1.82-13.881-0.228-16.953 1.138-2.048 2.39-2.162 27.08-1.934l25.827 0.341 0.341 9.899z m112.299-1.023c0 6.599-0.455 9.102-1.707 9.898-2.617 1.707-52.679 1.48-54.386-0.227s-1.82-13.881-0.227-16.953c1.138-2.048 2.503-2.162 28.786-1.934l27.534 0.341v8.875z m142.79-7.168c1.935 3.982 3.756 10.012 4.21 13.88l0.57 4.324h-47.218c-53.362 0-48.583 0.91-48.583-9.785 0-11.605-3.869-10.809 46.307-10.467 37.66 0.341 44.032 0.569 44.715 2.048z m126.863 7.964v9.671l-47.331 0.342c-38.116 0.227-47.56 0-48.015-1.252-0.569-1.479 3.414-14.791 5.234-17.635 0.797-1.024 10.581-1.366 45.511-1.138l44.601 0.341v9.671z m-526.45 29.014c2.048 0.682 1.935 16.952-0.227 18.66-1.024 0.91-9.216 1.25-26.966 1.023l-25.486-0.341-0.341-9.558c-0.228-5.233 0.114-9.898 0.796-10.24 1.138-0.796 49.949-0.34 52.224 0.456z m245.988 0.682c0 2.39-11.264 16.498-14.222 17.863-2.162 1.024-21.163 1.366-70.543 1.366-59.847 0-67.697-0.228-69.29-1.82-1.252-1.252-1.82-3.87-1.82-8.762 0-7.85 0.682-9.443 3.868-10.012 1.251-0.228 35.954-0.341 77.141-0.114 54.045 0.228 74.866 0.569 74.866 1.48z m164.636-0.682c1.366 0.91 2.731 3.413 3.186 5.46 1.365 6.714 1.82 7.624 3.982 7.624s2.617-0.91 3.983-7.623c0.34-1.934 1.365-4.21 2.275-4.893 1.593-1.251 99.783-1.82 101.831-0.568 1.252 0.796 1.593 15.246 0.455 18.09-0.569 1.593-3.868 1.82-25.258 1.82-21.163 0-24.804-0.227-26.624-1.934-1.138-1.024-2.048-2.503-2.048-3.413 0-2.617-1.935-1.593-3.414 1.934l-1.365 3.414h-48.356c-31.06 0-49.038-0.455-50.517-1.138-1.251-0.683-2.162-2.39-2.162-3.982 0-1.48-0.569-3.072-1.137-3.414-1.138-0.682-1.593 0.114-2.731 5.348l-0.683 3.186h-24.917c-29.355 0-28.558 0.227-28.558-10.582 0-3.868 0.455-7.737 0.91-8.42 0.683-1.137 12.288-1.478 49.266-1.82 26.51-0.113 48.469-0.341 48.81-0.569 0.342-0.113 1.707 0.57 3.072 1.48z m-409.486 47.331c0.228 6.372-0.114 8.989-1.251 10.013-1.138 0.91-8.875 1.251-27.08 1.024l-25.486-0.342-0.341-10.012-0.341-9.899 27.079 0.228 27.079 0.341 0.341 8.647zM508.09 313.8c4.324 3.641 13.312 16.043 12.516 17.18-0.455 0.91-24.462 1.252-77.37 1.252-74.637 0-76.8-0.114-77.937-2.162-1.251-2.503-1.593-16.384-0.341-17.521 0.341-0.456 32.199-0.797 70.77-0.797 64.512 0.114 70.314 0.228 72.362 2.048z m128.57 8.192v9.671l-25.6 0.342c-23.098 0.227-25.715 0.113-26.966-1.707-1.593-2.048-2.048-16.498-0.683-17.863 0.455-0.342 12.516-0.57 26.965-0.455l26.283 0.341v9.671z m98.986-9.102c0.91 1.479-4.665 17.18-6.486 18.318-0.796 0.569-17.749 1.024-37.66 1.024h-36.068l-2.161-4.892c-2.503-5.462-4.665-12.288-4.665-14.223 0-1.706 86.016-1.934 87.04-0.227z m65.194 8.76l-0.34 10.013-23.894 0.342c-13.085 0.113-25.031 0-26.397-0.342-2.389-0.569-2.617-1.251-2.617-9.557 0-4.893 0.342-9.216 0.797-9.557 0.341-0.456 12.402-0.797 26.738-0.797h26.055l-0.342 9.899z m-526.677 29.242c0.797 1.024 1.252 4.778 1.024 10.012l-0.341 8.306-25.942 0.569c-14.222 0.341-26.396 0.341-26.965 0.227-1.251-0.455-1.593-18.773-0.341-19.91 0.341-0.456 12.06-0.797 25.941-0.797 20.366 0 25.6 0.341 26.624 1.593z m143.929-0.91c1.48 0.568 1.82 2.503 1.82 9.557 0 5.006-0.568 9.33-1.137 9.67-0.683 0.456-12.743 0.684-26.966 0.57-19 0-26.055-0.455-26.737-1.48-0.456-0.796-0.91-4.55-0.91-8.419 0-10.809-0.683-10.581 27.875-10.581 13.312 0 25.031 0.341 26.055 0.682z m111.275 0.682c1.024 0.91 2.389 4.893 3.185 9.444 1.138 7.168 1.138 8.078-0.682 9.33-2.503 1.82-51.77 2.161-55.182 0.34-1.82-1.023-2.162-2.502-2.162-9.101 0-11.72-1.024-11.378 28.33-11.378 18.091 0 25.145 0.341 26.51 1.365z m107.292 8.875v9.67h-53.475l-0.342-7.622c-0.569-12.97-2.048-12.402 27.99-12.06l25.827 0.34v9.672z m85.789-9.216c2.616 1.593-2.959 18.204-6.6 19.57-3.64 1.479-48.014 0.113-49.834-1.48-0.797-0.682-1.48-1.934-1.48-2.844 0-1.024-0.91-4.21-1.934-7.054-3.3-9.558-4.437-9.216 28.9-9.216 16.156 0 30.037 0.455 30.948 1.024z m78.392 9.443c0.228 6.372-0.113 10.013-0.91 10.013h-50.062c-2.048 0-2.276-0.797-2.276-9.558 0-6.599 0.456-9.784 1.48-10.126 0.682-0.341 12.629-0.569 26.396-0.455l25.031 0.228 0.341 9.898z m-490.95 28.672c1.592 0.342 1.934 1.82 1.934 9.558 0 7.281-0.342 9.216-1.82 9.785-1.025 0.34-28.787 0.682-61.896 0.682-68.38 0-63.716 0.683-63.716-9.443 0-7.623 0.91-10.81 3.186-11.264 2.73-0.57 120.036 0.113 122.311 0.682z m123.107-0.455c76.572 0 97.166 0.342 97.621 1.366 0.683 2.048-3.413 14.563-5.689 17.066-1.706 1.934-6.485 2.048-97.735 2.048-85.106 0-96.028-0.227-97.621-1.82-1.593-1.593-1.82-6.144-0.797-17.18 0.114-1.48 3.3-2.618 5.576-1.935 0.91 0.228 45.283 0.455 98.645 0.455z m203.662 10.24v9.671l-43.122 0.342c-32.54 0.227-43.463-0.114-44.714-1.138-2.048-1.707-1.707-17.636 0.455-18.887 0.682-0.455 20.594-0.57 44.373-0.228l43.008 0.57v9.67z m74.183-7.054c-1.365 6.827-2.958 11.833-4.665 14.45-1.82 2.73-2.389 2.844-13.54 2.844-6.37 0-12.173-0.455-12.97-0.91-1.593-1.024-3.413-5.348-5.461-13.084-1.252-5.007-1.252-5.576 0.682-6.258 1.024-0.455 9.785-0.683 19.229-0.455l17.294 0.341-0.569 3.072z m125.27-2.617c0.455 0.341 0.91 4.21 1.137 8.42 0.683 12.288 3.755 11.491-44.714 11.491-22.756 0-42.098-0.341-43.122-0.682-1.48-0.57-1.82-2.504-1.82-9.672 0-7.964 0.227-9.216 2.161-9.898 2.73-0.91 85.447-0.683 86.358 0.341z m-525.654 39.14c1.024 0.569 1.366 3.413 1.138 9.898l-0.341 8.989-62.01 0.341c-57.23 0.228-62.122 0.114-63.373-1.707-1.82-2.503-1.935-15.36-0.114-17.18 1.593-1.593 122.197-1.934 124.7-0.341z m198.998 0.796c0.455 1.48-12.744 10.695-19.456 13.426-11.833 4.892-17.295 5.234-90.226 5.234-67.698 0-69.746-0.114-70.884-2.162-1.593-3.072-1.479-15.246 0.228-16.953 1.934-1.934 179.655-1.48 180.338 0.455z m127.203 8.42v9.67l-43.918 0.342-44.032 0.228-0.683-2.503c-1.138-4.552-0.682-15.247 0.683-16.612 1.024-1.024 11.947-1.365 44.715-1.138l43.235 0.342v9.67z m61.668-8.306c0.455 1.024-0.114 4.323-1.138 7.282-1.024 2.844-1.934 6.144-1.934 7.054 0 1.024-0.57 2.162-1.366 2.617-1.593 1.024-5.461-3.527-5.461-6.6 0-1.137-0.796-3.754-1.82-5.574-2.617-5.234-1.48-6.713 5.233-6.713 4.324 0 5.917 0.455 6.486 1.934z m137.785-0.569c1.82 1.82 1.706 14.677 0 17.18-1.366 1.82-5.12 1.935-44.715 1.707l-43.236-0.341-0.341-8.42c-0.228-4.665-0.114-9.102 0.228-10.012 0.796-2.048 85.902-2.276 88.064-0.114zM368.256 617.244c5.575 1.024 12.402 2.617 15.247 3.641 12.401 4.551 24.576 16.043 31.175 29.469 4.778 9.785 6.713 17.635 9.785 40.277 1.592 11.492 0.91 60.53-0.91 75.093-2.276 16.726-7.624 33.337-13.882 43.122-10.24 15.815-25.258 24.235-47.104 26.397-14.222 1.365-77.14 1.251-80.782-0.114l-2.958-1.138V726.812c0-59.05 0.455-107.86 0.91-108.544 0.455-0.682 1.593-1.592 2.503-1.934 0.91-0.341 18.432-0.682 38.799-0.682 28.558-0.114 39.48 0.34 47.217 1.592z m179.087 0.91c13.994 3.186 21.048 6.827 28.444 14.564 15.019 15.815 17.977 48.128 6.144 68.153-4.437 7.51-9.557 12.516-16.043 15.929-2.73 1.365-4.892 2.73-4.892 2.958 0 0.228 3.755 2.276 8.306 4.438 10.012 5.006 14.563 9.33 19.57 18.204 3.754 6.94 7.395 21.732 7.395 29.924-0.114 7.964-4.21 25.827-7.282 32.199-8.647 17.408-26.738 28.558-49.948 30.606-17.977 1.593-84.196 1.479-85.902-0.228-2.048-2.048-1.935-216.064 0.113-218.112 2.048-2.161 83.855-1.024 94.095 1.366z m154.51 2.618c21.618 5.916 33.337 17.066 39.48 37.432 2.618 8.648 2.276 33.11-0.454 43.008-5.12 17.864-11.037 26.51-31.517 46.194-30.151 28.786-37.091 35.954-40.96 42.44-2.275 3.64-3.755 7.395-3.413 8.305 0.569 1.48 6.258 1.707 38.457 1.707 21.845 0 38.57 0.455 39.594 1.138 1.366 0.796 1.82 4.21 2.048 15.928 0.342 12.971 0.114 15.247-1.593 17.18-1.82 2.049-4.323 2.163-64.853 2.163-38.115 0-64.057-0.455-65.763-1.138-2.731-1.024-2.959-1.593-2.959-8.306 0-7.282 2.959-22.755 6.03-31.061 1.593-4.438 7.282-15.702 10.24-20.366 7.169-11.492 28.786-34.589 49.494-52.793 10.923-9.671 17.977-20.367 20.139-30.493 2.048-9.557 2.161-20.935 0.34-28.9-2.616-11.49-12.856-17.294-25.03-13.994-10.923 2.844-15.474 10.581-16.726 28.103-0.568 7.965-1.251 11.492-2.389 12.174-0.91 0.683-10.467 1.024-21.618 0.797l-19.91-0.228 0.113-13.084c0-7.168 0.683-15.246 1.365-17.863 5.462-19.343 19.001-32.655 38.799-38.002 10.24-2.73 41.87-2.958 51.086-0.341z" fill="#1296db" p-id="3801"></path><path d="M326.955 650.923c-2.048 2.161-2.162 149.504-0.114 150.755 0.797 0.455 6.258 0.797 12.288 0.683 32.427-0.683 38.57-11.15 40.505-68.494 1.138-30.493-2.162-58.027-8.078-69.291-2.276-4.437-8.533-9.899-13.653-12.06-6.144-2.504-29.014-3.755-30.948-1.593z m170.894 0c-0.341 0.91-0.455 13.653-0.341 28.33l0.341 26.738 7.282 0.341c10.354 0.456 23.666-2.503 28.558-6.485 7.168-5.689 8.534-9.443 8.534-22.3 0-15.474-3.3-21.163-14.223-25.145-7.168-2.503-29.354-3.641-30.15-1.48z m0.342 88.177c-0.57 0.456-0.91 14.792-0.91 31.858 0 23.666 0.34 31.062 1.478 31.517 1.935 0.682 24.349-1.024 29.355-2.39 13.312-3.527 19.684-13.198 19.57-30.378 0-13.995-4.665-22.983-14.564-28.217-3.754-1.934-7.054-2.503-19.342-2.845-8.078-0.227-15.132-0.113-15.587 0.455z" fill="#1296db" p-id="3802"></path></svg>
