<?xml version="1.0" standalone="no"?><!DOCTYPE svg PUBLIC "-//W3C//DTD SVG 1.1//EN" "http://www.w3.org/Graphics/SVG/1.1/DTD/svg11.dtd"><svg t="1717552705120" class="icon" viewBox="0 0 1024 1024" version="1.1" xmlns="http://www.w3.org/2000/svg" p-id="8524" xmlns:xlink="http://www.w3.org/1999/xlink" width="200" height="200"><path d="M0 192a192 192 0 0 1 192-192h640a192 192 0 0 1 192 192v640a192 192 0 0 1-192 192H192a192 192 0 0 1-192-192V192z" fill="#1C2681" p-id="8525"></path><path d="M595.2 531.2c-19.2-19.2-64-25.6-76.8-25.6-19.2-6.4-32-12.8-57.6-25.6-64-32-38.4-172.8-38.4-185.6-12.8 6.4-32 19.2-51.2 32v83.2c0 44.8 25.6 70.4 44.8 83.2 19.2 19.2 64 32 96 32 32 6.4 44.8 19.2 64 57.6 19.2 38.4 12.8 121.6 12.8 140.8 12.8-6.4 32-19.2 51.2-32v-25.6c0-38.4 0-70.4-12.8-96-12.8-12.8-25.6-25.6-32-38.4z" fill="#FFFFFF" p-id="8526"></path><path d="M480 537.6c-166.4-19.2-128-153.6-128-198.4-25.6 12.8-44.8 32-57.6 51.2v70.4c6.4 25.6 12.8 51.2 38.4 64 19.2 12.8 44.8 32 64 32 38.4 6.4 57.6 6.4 96 38.4 32 32 19.2 153.6 12.8 172.8 12.8 0 25.6-12.8 51.2-25.6v-25.6c12.8-121.6-6.4-160-76.8-179.2z" fill="#FFFFFF" p-id="8527"></path><path d="M576 473.6c-32-6.4-64-25.6-76.8-64-12.8-44.8-6.4-115.2-6.4-147.2-19.2 6.4-32 12.8-51.2 19.2l-6.4 51.2c0 51.2 6.4 89.6 19.2 115.2 25.6 38.4 64 38.4 108.8 51.2 38.4 12.8 57.6 25.6 70.4 57.6 12.8 32 12.8 76.8 12.8 128 12.8-12.8 32-25.6 44.8-38.4V608c0-19.2 0-38.4-12.8-70.4-12.8-38.4-70.4-57.6-102.4-64z m-115.2 115.2c-19.2-12.8-38.4-19.2-57.6-19.2-25.6-6.4-64-19.2-83.2-32-12.8-6.4-38.4-32-44.8-64 0-12.8-6.4-32-6.4-70.4-76.8 70.4-115.2 160-108.8 262.4 6.4 153.6 256 153.6 320 108.8 6.4-32 19.2-57.6 12.8-147.2 0-12.8-6.4-25.6-32-38.4z" fill="#FFFFFF" p-id="8528"></path><path d="M838.4 294.4c-57.6-70.4-153.6-89.6-300.8-44.8-12.8 44.8-12.8 102.4-6.4 147.2 19.2 70.4 108.8 70.4 140.8 83.2 32 12.8 57.6 38.4 70.4 108.8v32c121.6-134.4 147.2-243.2 96-326.4z" fill="#FFFFFF" p-id="8529"></path></svg>
