<?xml version="1.0" standalone="no"?><!DOCTYPE svg PUBLIC "-//W3C//DTD SVG 1.1//EN" "http://www.w3.org/Graphics/SVG/1.1/DTD/svg11.dtd"><svg t="1717552701795" class="icon" viewBox="0 0 1024 1024" version="1.1" xmlns="http://www.w3.org/2000/svg" p-id="8359" xmlns:xlink="http://www.w3.org/1999/xlink" width="200" height="200"><path d="M0 0m192 0l640 0q192 0 192 192l0 640q0 192-192 192l-640 0q-192 0-192-192l0-640q0-192 192-192Z" fill="#B81C21" p-id="8360"></path><path d="M831.936 225.408l-73.44 140.704h-408a31.584 31.584 0 0 0-14.592 1.44c-4.704 1.632-8.992 4.352-12.544 7.936a34.88 34.88 0 0 0-9.568 27.904v225.888c0 28.128 12.256 37.28 36.736 37.28h350.176V592h-235.264v-146.368h305.28c8.224-0.192 16.384 1.344 24 4.544 7.584 3.2 14.464 8 20.224 14.08 5.76 6.048 10.208 13.28 13.12 21.216 2.944 7.936 4.256 16.416 3.872 24.896v232.864c0 41.536-20.384 59.84-61.184 59.84H314.464c-80.896-27.456-121.696-70.4-121.696-140.736v-297.6a130.848 130.848 0 0 1 5.056-52.64c5.216-16.96 13.888-32.64 25.376-45.92a122.688 122.688 0 0 1 41.28-31.168A118.912 118.912 0 0 1 314.464 224l517.472 1.408z" fill="#FDFBFC" p-id="8361"></path></svg>