<svg t="1718976279820" class="icon" viewBox="0 0 1024 1024" version="1.1" xmlns="http://www.w3.org/2000/svg" p-id="3793" width="200" height="200"><path d="M468.064 866.08v91.616c-81.408-7.168-155.328-25.376-221.792-54.656-66.432-29.28-118.752-66.496-156.96-111.68C51.104 746.176 32 697.536 32 645.408c0-50.016 17.952-97.056 53.856-141.184 35.904-44.096 84.992-80.8 147.328-110.08s132.224-48.576 209.728-57.856v92.128c-77.504 13.568-141.152 40.352-190.976 80.352-49.824 40-74.72 85.536-74.72 136.64 0 54.272 27.584 101.952 82.752 143.04 55.168 41.056 124.544 66.944 208.096 77.632zM992 587.008l-19.808-208.928-75.008 42.304c-72.864-44.288-158.752-72.32-257.696-84.096v92.128c57.504 10.368 107.488 28.032 150.016 53.056l-78.752 44.48L992 587.008z" fill="#B7B7B7" p-id="3794"></path><path d="M613.792 889.152l-145.728 68.576V137.536l145.728-71.264v822.88z" fill="#FEA71F" p-id="3795"></path></svg>
