<?xml version="1.0" standalone="no"?><!DOCTYPE svg PUBLIC "-//W3C//DTD SVG 1.1//EN" "http://www.w3.org/Graphics/SVG/1.1/DTD/svg11.dtd"><svg t="1717552745564" class="icon" viewBox="0 0 1024 1024" version="1.1" xmlns="http://www.w3.org/2000/svg" p-id="9019" xmlns:xlink="http://www.w3.org/1999/xlink" width="200" height="200"><path d="M0 0m192 0l640 0q192 0 192 192l0 640q0 192-192 192l-640 0q-192 0-192-192l0-640q0-192 192-192Z" fill="#3E71F9" p-id="9020"></path><path d="M309.76 627.488c17.664-38.016 66.496-75.008 81.568-80.736 15.072-6.208 37.376-20.288 87.776-31.744 50.944-11.968 99.264-28.608 128.864-67.2 30.144-37.984 62.848-106.752 62.848-106.752s34.304-65.6 76.896-76.512c42.592-11.456 65.44-9.888 76.384-15.072 11.392-5.248 10.88-6.272 23.36-8.896 12.48-2.592 16.096 12.48 16.096 12.48s1.6 22.944-4.16 38.08c-5.696 15.04-23.36 35.36-40.544 49.92-17.6 14.624-40.992 39.616-46.24 82.848-5.12 43.2-17.088 86.432-17.088 86.432l-21.344 89.568s-12.96 67.68 26.016 90.08c-12.48 19.264-74.816 27.584-94.08-11.968-34.784 13.536-36.8 54.688-59.2 69.248-22.848 14.56-59.2 32.256-95.584 28.64 32.704-47.392 43.136-78.624 43.136-78.624s-127.328-24.48-165.216-16.704c-37.92 7.84-41.536 10.976-75.84 36.992-34.304 26.56-55.616 41.152-96.128 41.152s-44.672-5.728-46.208-15.104c-1.6-9.376 24.928-27.616 24.928-27.616s-22.368 1.6-27.552-4.16a275.296 275.296 0 0 0-8.32-8.832s15.584-24.992 50.944-27.072c36.832-2.112 60.8-5.248 60.8-5.248s20.224-5.184 37.888-43.2zM744.576 312.96s9.888 13.024 24.96 1.6c15.584-10.944 8.832-24.48 8.832-24.48s-11.936-1.6-22.336 4.672c-9.888 5.696-11.456 18.24-11.456 18.24z m74.304-40.64c-12.992 16.64-18.176 24.992-26.496 45.312-2.592 9.376 1.056 4.16 2.624 1.568 4.16-14.592 18.144-35.424 26.464-46.336 5.184-5.248 1.056-5.248-2.56-0.544z m3.648 4.16c-12.992 16.672-18.176 31.744-21.792 43.2 0 7.328 0.992 4.192 2.56 2.08 1.024-11.936 12.48-32.8 21.28-43.712 4.704-4.704 1.6-5.728-2.048-1.6z m3.104 3.68c-12.48 20.8-12.96 32.768-14.56 42.688 0 7.264 1.6 2.56 3.136 0.512 0.544-11.456 5.696-28.672 13.504-41.152 4.672-4.704 1.568-6.24-2.08-2.08v0.032z m3.648 3.072c-10.912 22.944-8.32 31.264-9.888 41.152 1.6 3.648 1.6 1.056 3.136-0.992 0.512-11.52 1.024-25.024 8.832-37.536 3.104-4.16 1.536-7.264-2.08-2.624z" fill="#FFFFFF" p-id="9021"></path></svg>
