<?xml version="1.0" standalone="no"?><!DOCTYPE svg PUBLIC "-//W3C//DTD SVG 1.1//EN" "http://www.w3.org/Graphics/SVG/1.1/DTD/svg11.dtd"><svg t="1717552786512" class="icon" viewBox="0 0 1024 1024" version="1.1" xmlns="http://www.w3.org/2000/svg" p-id="11004" xmlns:xlink="http://www.w3.org/1999/xlink" width="200" height="200"><path d="M921.6512 1024h-819.2a102.4 102.4 0 0 1-102.4-102.4V102.4a102.4 102.4 0 0 1 102.4-102.4h819.2a102.4 102.4 0 0 1 102.4 102.4v819.2a102.4 102.4 0 0 1-102.4 102.4zM528.8448 157.3888c0.6656 34.4064 2.5088 80.0768 4.608 133.12v1.2288c8.192 203.4688 20.48 510.8224-26.4192 531.9168v78.2848c0 11.52 13.2608 17.8176 20.0704 17.8176a20.48 20.48 0 0 0 18.5856-21.3504v-79.8208a331.52 331.52 0 0 0 140.3392-296.96c0-124.16-71.68-230.8096-119.3472-301.4144a387.0208 387.0208 0 0 1-37.888-62.8224z m-5.888-52.992a269.2096 269.2096 0 0 1-62.3616 107.9296 464.6912 464.6912 0 0 0-122.4192 309.1968c0 224.9216 128.256 284.8768 142.8992 290.9696 36.7616-38.4512 38.7072-311.6032 40.3968-552.6528v-6.2464c0.4096-52.4288 0.8192-101.9392 1.4848-149.1968z" fill="#00b96b" p-id="11005"></path></svg>
