<?xml version="1.0" standalone="no"?><!DOCTYPE svg PUBLIC "-//W3C//DTD SVG 1.1//EN" "http://www.w3.org/Graphics/SVG/1.1/DTD/svg11.dtd"><svg t="1717552897045" class="icon" viewBox="0 0 1152 1024" version="1.1" xmlns="http://www.w3.org/2000/svg" p-id="4118" xmlns:xlink="http://www.w3.org/1999/xlink" width="225" height="200"><path d="M141.376 25.6h864c64 0 115.2 51.2 115.2 115.2v748.8c0 64-51.2 115.2-115.2 115.2h-864c-64 0-115.2-51.2-115.2-115.2V140.8c0-64 51.2-115.2 115.2-115.2z" fill="#0B5994" p-id="4119"></path><path d="M884.864 807.552s-19.2-32-51.2-57.6c-12.8-6.4-25.6-19.2-38.4-25.6-6.4-6.4-19.2-12.8-25.6-19.2h12.8c38.4 0 70.4-6.4 76.8-19.2v-12.8c0-25.6-32-57.6-83.2-76.8-12.8-12.8-32-19.2-51.2-25.6-12.8 0-12.8 0-19.2-12.8-19.2-19.2-38.4-57.6-51.2-96-25.6-57.6-51.2-108.8-83.2-140.8 0 0-6.4-6.4-6.4-12.8-19.2-25.6-57.6-64-102.4-83.2-44.8-19.2-64-19.2-83.2-25.6h-6.4c-6.4 0-19.2-6.4-32-12.8-19.2-19.2-44.8-32-76.8-32-25.6 0-32 12.8-38.4 19.2-12.8 19.2-6.4 44.8 0 51.2 6.4 6.4 12.8 19.2 19.2 25.6 6.4 12.8 19.2 25.6 19.2 32 6.4 12.8 12.8 38.4 19.2 57.6 6.4 19.2 12.8 38.4 19.2 44.8 6.4 6.4 6.4 12.8 12.8 19.2 6.4 6.4 12.8 19.2 12.8 25.6 0 6.4 0 19.2-6.4 25.6-6.4 19.2-12.8 44.8-12.8 89.6 6.4 64 44.8 102.4 64 96 19.2-6.4 32-38.4 32-51.2v-12.8s6.4 6.4 6.4 12.8c6.4 12.8 12.8 25.6 19.2 32 32 32 76.8 70.4 83.2 70.4l19.2 12.8-12.8-19.2-57.6-70.4c-12.8-19.2-25.6-51.2-32-64v-6.4-6.4c0-6.4-12.8-25.6-25.6-25.6-6.4 0-25.6 25.6-25.6 44.8v32c0 6.4-6.4 6.4-6.4 12.8-12.8-6.4-32-38.4-25.6-83.2 0-19.2 6.4-32 12.8-51.2 6.4-19.2 12.8-38.4 6.4-51.2 0-6.4-6.4-6.4-6.4-12.8s-6.4-12.8-19.2-32c-12.8-12.8-12.8-32-19.2-51.2-6.4-19.2-12.8-38.4-25.6-51.2-6.4-19.2-19.2-32-25.6-38.4-19.2-25.6-19.2-32-12.8-38.4 0-6.4 6.4-6.4 12.8-6.4 12.8 0 38.4 12.8 51.2 25.6 12.8 6.4 25.6 12.8 32 19.2 6.4 0 12.8 6.4 19.2 6.4 19.2 6.4 32 6.4 64 19.2 32 12.8 76.8 64 102.4 96 32 25.6 57.6 83.2 83.2 140.8 19.2 25.6 32 57.6 44.8 70.4 0 12.8 6.4 19.2 19.2 25.6l38.4 19.2c12.8 6.4 19.2 6.4 32 12.8 32 12.8 51.2 38.4 57.6 38.4h-6.4H788.864c-19.2 0-57.6 6.4-64 25.6-6.4 19.2 6.4 44.8 32 57.6 51.2 32 115.2 70.4 115.2 70.4l19.2 12.8-6.4-19.2z" fill="#FFFFFF" p-id="4120"></path><path d="M353.664 289.152c0 6.4 6.4 12.8 12.8 19.2 12.8 6.4 12.8 19.2 12.8 19.2v6.4h6.4s12.8-6.4 12.8-19.2c0-6.4 0-12.8-6.4-19.2 0-6.4-6.4-12.8-19.2-12.8-6.4 0-19.2 6.4-19.2 6.4zM884.864 884.352c-44.8 6.4-102.4 12.8-147.2-6.4-38.4-12.8-102.4-38.4-179.2-25.6-76.8 12.8-140.8 38.4-140.8 38.4s96-25.6 134.4-25.6c38.4 0 96 6.4 140.8 25.6 57.6 25.6 147.2 32 211.2 6.4s89.6-44.8 89.6-44.8-70.4 25.6-108.8 32z" fill="#FFFFFF" p-id="4121"></path></svg>
