<?xml version="1.0" standalone="no"?><!DOCTYPE svg PUBLIC "-//W3C//DTD SVG 1.1//EN" "http://www.w3.org/Graphics/SVG/1.1/DTD/svg11.dtd"><svg t="1717552781153" class="icon" viewBox="0 0 1024 1024" version="1.1" xmlns="http://www.w3.org/2000/svg" p-id="10678" xmlns:xlink="http://www.w3.org/1999/xlink" width="200" height="200"><path d="M0 0m128 0l768 0q128 0 128 128l0 768q0 128-128 128l-768 0q-128 0-128-128l0-768q0-128 128-128Z" fill="#AB1E26" p-id="10679"></path><path d="M648 683.328H376.32c-49.152 0-88.576-12.224-109.312-61.184H224c24.256 61.184 81.408 97.92 152.32 97.92h271.36c71.04 0 128.128-36.736 152.32-97.92h-42.752c-20.672 48.96-60.096 61.184-109.248 61.184zM376.32 340.672h271.68c49.152 0 88.576 12.224 109.248 61.184h42.752c-24.192-61.184-81.28-97.92-152.32-97.92H376.32c-70.912 0-128.064 36.736-152.32 97.92h43.072c20.672-48.96 60.16-61.184 109.248-61.184zM341.952 513.28c0-40.32-33.6-73.216-74.88-73.216H202.88C161.6 440.128 128 472.96 128 513.344c0 40.32 33.6 73.216 74.88 73.216h64.192c41.344 0 74.88-32.896 74.88-73.216z m-178.24 0c0-21.12 17.6-38.4 39.168-38.4h64.192c21.632 0 39.232 17.28 39.232 38.4 0 21.12-17.6 38.4-39.232 38.4H202.88a38.848 38.848 0 0 1-39.168-38.4z m357.12-19.2a54.656 54.656 0 0 0-55.168-54.016H358.656v146.88h35.648V515.584l68.096 71.424h48.704L473.6 547.648a54.528 54.528 0 0 0 47.296-53.568z m-55.168 19.2H394.304v-38.4h71.36c10.816 0 19.52 8.704 19.52 19.264a19.328 19.328 0 0 1-19.52 19.136z m145.92-38.4h74.176l35.648-34.816H611.584c-41.28 0-74.88 32.832-74.88 73.216 0 40.32 33.6 73.152 74.88 73.152h73.28l35.648-34.816H611.584a38.848 38.848 0 0 1-39.232-38.4c0-21.12 17.6-38.336 39.232-38.336z m161.6 69.952V440.128h-42.816v146.56h122.88L896 544.96h-122.88z" fill="#FFFFFF" p-id="10680"></path></svg>
