<?xml version="1.0" standalone="no"?><!DOCTYPE svg PUBLIC "-//W3C//DTD SVG 1.1//EN" "http://www.w3.org/Graphics/SVG/1.1/DTD/svg11.dtd"><svg t="1717552869732" class="icon" viewBox="0 0 1024 1024" version="1.1" xmlns="http://www.w3.org/2000/svg" p-id="2334" xmlns:xlink="http://www.w3.org/1999/xlink" width="200" height="200"><path d="M192 21.333333h640a170.666667 170.666667 0 0 1 170.666667 170.666667v640a170.666667 170.666667 0 0 1-170.666667 170.666667H192a170.666667 170.666667 0 0 1-170.666667-170.666667V192a170.666667 170.666667 0 0 1 170.666667-170.666667z m329.450667 150.144l-19.413334 1.706667-36.352 10.133333c-54.72 23.637333-87.125333 90.624-90.410666 165.077334 12.458667-6.208 25.962667-12.928 40.554666-16.917334 73.877333-20.181333 84.053333 27.157333 93.802667 83.797334 3.690667 21.482667 4.373333 51.925333-0.853333 72.810666-4.416 17.706667-11.242667 33.386667-17.749334 48.256l-16.896 48.256h0.853334l5.269333-0.682666c5.226667 0 10.304 1.706667 14.165333 3.2 30.485333 11.861333 27.050667 41.685333 27.050667 82.986666 0 9.706667-0.170667 19.861333-0.32 30.229334l-0.213333 20.949333c-0.256 63.253333 4.053333 128.042667 49.536 140.970667 17.386667 4.970667 37.973333-0.853333 51.541333-5.077334 73.685333-22.805333 59.136-110.890667 73.536-190.464 3.733333-20.693333-0.704-48.917333 8.448-64.341333 6.357333-10.730667 16.064-12.458667 26.197333-19.477333-30.805333-48.085333-65.066667-99.52-82.816-160-21.397333-72.789333 16.362667-101.973333 87.893334-97.344-32.533333-84.565333-98.005333-153.386667-213.824-154.069334z m-43.093334 434.282667L443.733333 642.986667c-14.890667 9.685333-39.424 12.928-58.304 17.770666l0.853334 1.706667 10.624 3.349333c34.88 9.770667 64.490667 5.226667 89.92-16.064 13.888-11.605333 20.501333-43.050667-8.448-44.010666z m-174.08-432.597333l-37.184 4.224c-35.029333 8.746667-63.552 28.928-76.885333 59.264-41.514667 94.336 17.386667 269.930667 49.002667 343.701333 10.773333 25.130667 31.381333 74.026667 58.304 80.426667 13.866667 3.306667 22.272-6.997333 27.882666-12.693334l62.549334-71.104c-19.626667-23.104-46.08-50.986667-38.037334-100.757333L354.133333 433.066667l-0.853333-39.381334-0.832-39.36c12.522667-81.514667 21.674667-109.226667 61.696-161.706666V191.786667l-14.677333-2.88c-29.184-6.293333-58.026667-15.317333-95.189334-15.744z m436.053334 430.058666c-14.4 7.68-20.949333 9.152-20.266667 32.170667 35.968 17.621333 104.704-6.698667 120.832-26.24-20.821333 2.218667-45.12 9.6-69.290667 5.077333-12.096-2.282667-20.416-9.429333-31.274666-11.008zM436.117333 350.08l-32.128 8.469333-14.784 8.021334-14.784 8.042666 1.706667 63.509334c-2.986667 20.373333-8.042667 45.162667-4.245333 66.026666 7.381333 40.341333 34.282667 74.88 81.130666 75.349334l12.672-39.808c7.104-17.322667 16.064-34.112 21.12-54.186667 8.810667-34.88 1.92-114.602667-18.581333-129.493333-7.488-5.461333-19.072-6.101333-32.106667-5.930667zM659.2 163.84l-36.330667 5.909333 1.706667 0.853334c13.546667 10.368 30.421333 16.341333 43.925333 26.24 38.741333 28.416 79.914667 79.381333 91.264 133.76 4.992 23.872-3.84 60.629333-7.594666 81.28-6.122667 33.706667 11.989333 62.144 5.909333 98.197333-2.56 15.189333-17.194667 51.221333-12.672 55.018667v-1.706667l5.781333-6.997333c7.04-10.112 11.626667-22.933333 17.877334-33.621334 31.296-53.589333 53.76-116.437333 69.290666-185.386666 5.888-26.090667 11.2-70.72 0.853334-95.68-5.269333-12.672-18.496-24.042667-28.736-32.170667C771.413333 178.666667 731.733333 163.413333 659.2 163.861333z m70.186667 183.381333c-25.173333-0.832-49.6-0.277333-60.032 15.552-8.32 12.586667-5.354667 39.509333-0.853334 54.186667 11.178667 36.437333 28.864 68.053333 46.485334 98.197333l11.818666 24.533334 1.706667-0.853334c3.413333-18.069333 11.306667-37.632 7.594667-61.781333l-5.909334-61.802667 7.594667-67.712-8.384-0.32z m-285.610667 21.888l6.186667 0.576c7.658667 1.109333 13.013333 3.712 18.602666 7.893334l-0.853333 6.762666c-7.808 18.496-38.805333 10.816-39.701333-9.322666l0.853333-1.706667 7.594667-4.224 7.317333 0.021333z m256.341333-6.784c8.448 1.408 11.221333 2.773333 15.210667 8.469334-5.162667 9.536-9.173333 9.941333-18.581333 16.085333-9.813333-2.688-13.738667-4.714667-19.456-11.008 0.533333-4.885333 1.386667-4.757333 3.392-7.616 4.586667-1.770667 7.296-5.056 19.434666-5.930667z" fill="#4C89FF" p-id="2335"></path></svg>
