<?xml version="1.0" standalone="no"?><!DOCTYPE svg PUBLIC "-//W3C//DTD SVG 1.1//EN" "http://www.w3.org/Graphics/SVG/1.1/DTD/svg11.dtd"><svg t="1717552691513" class="icon" viewBox="0 0 1024 1024" version="1.1" xmlns="http://www.w3.org/2000/svg" p-id="7864" xmlns:xlink="http://www.w3.org/1999/xlink" width="200" height="200"><path d="M154.624 0h714.752A154.624 154.624 0 0 1 1024 154.624v714.752A154.624 154.624 0 0 1 869.376 1024H154.624A154.624 154.624 0 0 1 0 869.376V154.624A154.624 154.624 0 0 1 154.624 0z" fill="#487AE9" p-id="7865"></path><path d="M511.488 507.8016l-19.3536 59.4432c-10.3424 36.9664-9.472 48.5888-4.2496 57.1904 1.3312 2.0992 4.864 9.0112 9.7792 27.4944 7.168 26.6752 13.5168 67.072 13.6704 68.9664-1.024 24.6784-0.512 50.7904 1.536 75.776h-255.488c-28.928 0-52.5824-22.8864-52.5824-50.8416V285.184c0-27.9552 23.6544-50.8928 52.5312-50.8928h393.216c-60.16 61.9008-119.8592 179.3024-139.0592 273.408z m277.6064-288.512c72.0384 62.2592 0.512 204.5952-65.1776 304.7936-47.7696 14.848-103.424 47.7184-103.424 47.7184s4.608-2.3552 21.8112-9.3696c11.6224-4.7104 46.4384-12.7488 67.584-17.408a1261.1584 1261.1584 0 0 1-65.5872 87.7568s-61.696 24.32-80.7936 80.7936c11.0592-60.2624 29.3888-123.136 55.296-190.1568 23.1424-59.904 100.352-221.4912 157.4912-271.4624-62.6688 48.384-131.072 149.6064-180.3776 275.8144-29.184 83.5584-45.056 163.7888-47.616 230.2976-1.6896 43.52 2.2016 81.2032 11.776 109.9776l-4.4032 2.3552c-9.4208-23.552-18.0224-65.024-15.9232-149.8624l-0.512-6.2464s-5.6832-37.1712-13.8752-67.6864c-3.6352-13.5168-7.7824-25.7536-12.0832-32.8704-2.2528-3.6352 0.2048-18.688 6.4512-40.96 10.5472 17.7664 21.9648 37.0688 26.3168 52.8384 0 0-8.448-42.0352-22.272-66.56 3.072-9.9328 6.656-20.8896 10.752-32.6144 10.24 17.3056 20.6336 33.792 24.7808 50.176a298.5984 298.5984 0 0 0-20.2752-62.7712c17.408-87.7056 73.472-202.5984 133.8368-264.6528 32.2048-33.28 76.5952-63.0784 116.224-29.9008z" fill="#FFFFFF" p-id="7866"></path></svg>
