<?xml version="1.0" standalone="no"?><!DOCTYPE svg PUBLIC "-//W3C//DTD SVG 1.1//EN" "http://www.w3.org/Graphics/SVG/1.1/DTD/svg11.dtd"><svg t="1717552758463" class="icon" viewBox="0 0 1024 1024" version="1.1" xmlns="http://www.w3.org/2000/svg" p-id="9673" xmlns:xlink="http://www.w3.org/1999/xlink" width="200" height="200"><path d="M372.16 291.36c10.18-9.3 24.32-19.63 40.01-29.19 6.22-3.88 25.02-14.08 29.69-16.28 2.12-1.04 3.82-1.94 3.82-2.2s-3.68-1.03-8.34-1.68c-27.57-4.27-70.69-11.76-94.72-16.66-3.82-0.78-6.92-1.17-7.63-1.17-0.14 0-0.14 0.13-0.14-0.12 0 0.26 1.27 2.97 2.83 5.94 9.61 18.73 20.22 45.34 25.3 63.29 0.71 2.72 1.56 4.91 1.56 4.91s3.54-3.1 7.64-6.85zM515.24 376.23c-13.85-6.32-32.23-14.21-34.22-14.59-0.42 0-0.99 1.29-1.55 3.23-5.8 24.67-15.98 49.99-28.7 71.17-3.82 6.33-3.96 6.85-3.39 6.85 0.14 0 5.8-3.1 12.58-6.85 23.75-13.18 46.51-24.67 73.09-36.81 8.34-3.74 15.12-6.97 14.98-7.1-0.99-0.78-20.08-10.08-32.8-15.89zM468.86 250.94c9.9 20.93 15.27 45.73 15.27 70.27 0 4.52 0.14 8.27 0.28 8.27s6.22-3.62 13.43-8.01c27.57-16.79 55.28-30.61 92.6-45.98 9.47-3.88 12.44-5.43 11.6-5.68-1.7-0.65-30.25-6.07-49.91-9.56-26.44-4.66-84.54-13.82-84.97-13.44-0.14 0.13 0.71 2.07 1.7 4.14zM405.95 217.48c-1.63 0.8-2.77 1.52-3.04 1.78 24.05 3.65 49.7 7.43 80.54 11.84-0.1-0.2-0.35-0.47-0.59-0.84-3.67-5.04-18.66-31.13-23.47-40.82-1.7-3.49-2.4-4.65-2.97-4.65-0.14-0.12-0.42 0-0.57 0.26-0.56 0.39-3.53 2.71-6.78 5.17-13.29 10.2-28.28 19.77-43.12 27.26zM443.28 166.07c6.08 1.68 6.08 2.46 0.85-11.76-6.93-18.86-11.31-36.29-13.71-54.38-0.57-4.26-1.13-7.88-1.27-8.01H429c-3.96 0.65-57.11 20.92-76.48 29.06-15.13 6.46-49.48 22.86-48.92 23.38 0 0.13 6.36 1.03 13.85 1.94 46.8 5.94 111.41 16.15 125.83 19.76zM335.3 208.77c-0.26-0.49-1.85-2.29-4-4.72-2.4-2.71-13.43-14.98-24.32-27.51l-19.93-22.73-1.84 1.17c-20.36 13.17-32.38 26.09-32.52 34.74v1.39c1.46 0.49 2.89 0.98 4.24 1.45 12.72 4.01 28.98 7.49 37.46 9.18 11.46 2.26 26.93 4.81 40.9 7.04zM452.61 635.86c6.5-19.77 10.46-37.33 13.01-56.19 1.05-7.34 1.6-32.69 0.99-36.77-4.88 1.62-9.89 3.26-14.56 4.86a2608.76 2608.76 0 0 0-62.76 22.39c0.85 2.71 4.97 11.76 7.77 16.75 6.36 11.36 14.98 22.99 26.01 34.62 6.36 6.71 25.73 24.02 26.3 23.38 0.28-0.26 1.7-4.27 3.25-9.04zM325.65 222.14c-0.14 0-7.21-1.81-15.69-3.75-6.24-1.45-12.46-2.96-18.66-4.52-8.2-2.07-15.13-4.01-20.5-5.68-2.97-0.9-5.23-1.68-5.37-1.55 0 0.12 2.97 2.45 6.92 5.03 30.26 21.7 56.41 48.7 72.96 75.31 1.83 2.97 3.39 5.17 3.53 5.04 0.14 0-1.28-5.17-3.11-11.24-4.81-16.02-19.09-57.73-20.08-58.64zM351.95 201.46l13.43 12.03c4.53 0.71 9.07 1.41 13.6 2.11 1.29-0.48 4.72-2.23 8.6-4.44 15.27-8.66 37.33-19.9 57.4-29.07 5.09-2.19 9.05-4.13 8.91-4.26-0.14 0-4.1-0.39-8.76-0.78-41.57-3.1-116.92-16.28-146.89-25.57l-5.52-1.68 7.36 6.07c7.49 6.46 27 23.51 51.89 45.59zM545.49 413.69c-0.43-0.26-27.85 12.4-45.38 20.92-26.01 12.79-67.15 34.23-69.84 36.43-0.71 0.65-0.15 2.06 3.11 8.01 7.64 14.2 12.02 30.86 12.02 46.5 0 2.97 0.14 4.91 0.57 4.78 0.28-0.13 6.36-6.46 13.43-14.08 16.97-18.34 41.57-46.5 55.42-63.29 11.59-14.08 30.96-39.01 30.68-39.27zM439.6 656.01c-0.42-0.39-3.53-2.84-6.92-5.42-10.46-8.14-23.05-20.54-32.66-32.16-8.77-10.59-18.95-27.13-23.47-38.36-0.77-2.1-1.59-3.82-1.96-4.35-1.79 0.68-3.57 1.35-5.34 2.03-0.28 0.41-0.56 0.78-0.76 1.42-0.42 1.29-2.83 6.97-5.23 12.66-14.14 32.81-39.3 79.18-55.84 102.82-3.68 5.29-4.1 5.94-2.83 5.55 7.96-2.39 15.92-4.76 23.89-7.1 33.36-9.82 62.49-19.11 89.21-28.42 23.05-8.01 22.77-7.88 21.91-8.66zM498.13 341.23c0.14 0.26 5.09 2.06 10.74 4.26 20.36 7.75 39.02 16.02 55.42 24.8 4.38 2.32 8.2 4.26 8.48 4.13 0.29-0.12 2.97-4.01 5.94-8.78 16.82-26.86 30.54-55.41 35.62-74.66 1.7-6.2 3.54-16.66 3.11-17.05-0.57-0.52-31.67 15.24-50.76 25.83-24.03 13.17-69.56 40.69-68.57 41.46zM596.96 372.49c0.28 0 3.96-1.3 8.05-2.84 50.19-18.6 102.22-33.33 163.01-46.11l7.21-1.55-10.32-4.26c-24.89-10.33-63.05-23.12-96.28-32.17-13.43-3.61-39.16-10.07-40.43-10.07-0.43 0-0.85 1.94-0.99 4.39-2.4 26.09-12.16 56.71-27.29 86.03-1.84 3.62-3.25 6.59-2.97 6.59zM289.88 722.15l2.54 2.84c17.39 20.02 43.97 40.69 73.94 57.48 5.09 2.84 9.33 5.17 9.47 5.17 0.15 0 4.53-6.84 9.76-15.37 20.64-33.33 36.76-63.04 49.06-90.29 1.41-3.1 2.55-5.81 2.4-5.94-0.14 0-4.67 1.68-10.18 3.75-38.88 15.24-78.04 27.64-124.13 39.14l-12.86 3.23zM411.32 452.18l7.92 6.97 3.54-5.17c1.84-2.97 5.23-8.27 7.49-11.88 9.47-15.5 19.23-36.04 25.02-52.44 2.97-8.66 7.78-24.54 7.35-24.93-0.42-0.39-28.41 20.15-41.7 30.61-18.52 14.47-42.7 34.49-42.7 35.52 0 0.26 2.97 1.81 6.79 3.61 9.61 4.53 17.11 9.56 26.3 17.7zM374.99 415.76c0.28 0 5.65-4.52 12.02-10.08 21.35-18.86 39.16-33.71 57.68-47.79 4.52-3.62 8.34-6.59 8.34-6.72 0-0.78-34.21-11.23-50.33-15.37-10.6-2.71-30.26-6.97-30.68-6.59-0.14 0.13 0.28 3.23 0.71 6.85 4.52 28.29 5.23 56.19 1.98 77.89-0.14 1.03 0 1.81 0.28 1.81zM301.9 583.68c-5.37 3.61-9.76 6.59-9.76 6.72s5.66-2.33 12.58-5.55c6.93-3.1 17.53-7.75 23.61-10.34 21.63-9.04 53.58-21.18 88.22-33.45l19.36-6.84-0.28-2.59c-1.56-11.88-7.78-26.61-15.83-37.58-3.82-5.17-4.67-6.33-5.37-6.2h-0.28c-0.28 0.13-2.97 3.1-5.94 6.33-27.43 30.74-64.04 61.48-106.32 89.51zM468.02 331.41l0.42-1.29c0.29-0.65 0.57-5.68 0.85-11.11 0.85-19.51-1.55-40.43-6.79-59.16-2.83-9.68-4.24-14.08-5.09-14.34-1.28-0.39-40.01 27-54.29 38.49-7.49 6.07-25.03 22.09-25.03 22.86 0 0.26 9.76 2.97 21.77 5.94 21.07 5.42 45.66 12.01 60.79 16.4l7.35 2.2zM488.16 535.88c-1.04 0.33-2.11 0.67-3.15 0.99-0.2 1.59-0.24 4.77-0.31 11.54-0.28 26.09-5.66 58.64-15.13 90.8-1.13 3.88-1.97 7.1-1.69 7.1 0.14 0 5.94-2.19 12.86-5.04 39.3-15.89 71.4-31.65 97.13-47.66 12.02-7.49 11.45-6.72 6.22-8.78-16.96-6.72-56.55-26.87-85.68-43.53-5.27-2.98-8.34-4.62-10.25-5.43zM562.88 612.74c-23.05 14.08-49.62 28.29-77.34 41.46-6.92 3.36-12.87 6.2-13 6.33-0.57 0.52 19.36 11.76 33.08 18.6 20.78 10.46 43.83 19.38 65.03 25.45 4.81 1.29 8.91 2.32 8.91 2.32 0.14-0.13 0.85-4.26 1.7-9.3 4.95-28.8 8.34-68.33 8.34-97.14v-5.42l-2.27 1.55c-2.83 2.33-15.83 10.85-24.46 16.15zM588.75 571.28c-1.01-22.5-4.75-56.51-6.73-63.28-27.4 7.62-53.93 15.37-78.67 23.06 4.49 3.24 31.06 19.34 45.11 27.43 16.26 9.3 39.02 21.57 40.15 21.57 0.28 0 0.42-3.49 0.14-8.78zM467.17 673.06c-4.1-2.2-7.49-3.88-7.63-3.74-0.14 0.13-0.85 2.32-1.98 4.78-9.05 25.58-26.86 62.39-44.54 92.61-3.25 5.55-5.79 10.07-5.79 10.21 0 0.12 1.55-0.26 3.25-0.91s10.74-3.75 19.94-6.84c63.19-21.57 124.98-45.08 143.78-54.64l4.52-2.32-3.25-0.65c-35.91-7.61-78.04-22.47-108.29-38.49zM630.74 444.04c-14.28-10.97-32.94-23.51-48.78-32.94l-6.93-4.13-4.95 6.97c-24.6 33.71-57.68 68.33-95.01 99.72-14.57 12.27-13.85 11.62-13.01 11.62 0.42 0 5.94-1.81 12.44-4 58.39-19.64 108.44-34.23 173.19-50.64l11.45-2.97-1.7-1.68c-3.11-3.1-18.66-15.89-26.72-21.96zM417.55 790.34c-10.74 4.27-19.23 7.88-18.95 8.14 0.85 0.65 14.98 6.46 24.88 10.08 35.35 12.92 72.95 22.6 114.94 29.58 0.85 0.26 1.7 0.39 1.84 0.39s3.11-8.14 6.51-17.95c7.77-22.34 12.02-35.01 16.96-51.15 5.94-19.24 13.15-45.85 13.01-48.83-0.42 0-2.55 0.78-5.23 2.33-22.9 12.53-89.63 41.72-153.96 67.42z" p-id="9674"></path><path d="M938.67 0H85.33C38.2 0 0 38.21 0 85.33v853.34C0 985.8 38.2 1024 85.33 1024h853.34c47.13 0 85.33-38.2 85.33-85.33V85.33C1024 38.21 985.79 0 938.67 0zM925.8 431.78c-83.26 11.64-208.83 39.52-322.43 70.34 0.04 0.99 0.17 2.32 0.51 3.93 3.53 18.47 5.79 37.33 7.07 60.58 0.85 14.21 0.43 56.19-0.57 68.72-3.82 44.82-9.61 82.67-16.96 111.08-12.3 46.89-34.92 101.79-66.3 160.3-9.19 17.18-17.11 30.99-18.24 31.65-0.56 0.39-14.42 0.39-24.74 0-51.04-1.81-143.78-13.82-191.71-24.93-28.84-6.59-67.15-18.34-89.92-27.52-44.67-17.95-82.99-44.3-102.22-70.14-14.99-20.28-18.8-42.24-11.03-63.94 4.38-12.01 14.56-27.64 27.43-42.36 8.62-9.82 25.59-25.32 37.04-33.58 0.68-0.49 1.48-1.09 2.18-1.61l-1.48 0.45c95.71-71.82 157.78-136.54 187.19-195.18 16.54-32.68 23.18-60.84 22.34-92.87-1.41-49.86-16.54-86.03-51.32-122.71-7.64-8.01-70.55-64.07-70.55-64.07-6.08-5.17-11.45-10.2-13.29-14.34-0.75-1.7-1.1-3.26-1.23-4.64l-0.47-0.4c0-1.55 0.28-3.1 0.85-4.4 0.06-0.14 0.31-0.4 0.4-0.55 0.31-0.74 0.58-1.26 0.58-1.26 0.03 0.1 0.09 0.18 0.12 0.29 2.88-4.06 11.05-11.43 17.97-15.92 20.92-13.43 54.85-28.93 98.54-45.21 32.38-12.01 82.57-28.54 85.67-28.16 1.55 0.13 1.84 0.65 4.24 9.43 4.39 14.47 12.3 34.61 20.64 52.06 10.74 22.47 29.12 55.8 45.81 82.67l2.86 4.66c30.53 4.27 68.12 10.2 85.22 13.3 90.76 16.4 162.44 38.49 217.86 66.78 40.3 20.67 73.23 45.6 100.38 76.34 9.33 10.59 17.11 20.54 28.42 36.56l1.98 2.84-12.87 1.81z" p-id="9675"></path><path d="M770 350.91c5.93-7.62 15.27-21.05 14.99-21.31-0.29-0.26-18.52 4.52-35.63 9.43-32.66 9.17-76.2 23.38-108.15 35.26-18.24 6.72-42.27 16.15-42.27 16.54 0 0.13 1.27 1.16 2.83 2.19 1.56 1.04 6.22 4.52 10.46 7.76 22.48 17.05 41.42 36.04 57.26 57.73 1.98 2.84 3.82 5.17 3.96 5.17s4.81-5.42 10.46-11.88c5.51-6.46 22.2-25.71 37.04-42.76 28.14-32.29 40.58-47.02 49.06-58.13zM898.52 400.65c-26.58-23.77-60.23-46.89-94.58-64.84-4.1-2.2-7.49-3.74-8.06-3.61-0.28 0.39-3.11 5.81-6.36 12.14-23.18 42.63-42.84 66.53-85.82 104.38-6.93 6.07-12.44 11.1-12.16 11.1s4.67-0.91 9.61-1.94c73.23-16.15 149.44-27.64 208.96-31.78 7.63-0.52 14.14-1.03 14.14-1.03 0.28-0.13-18.24-17.69-25.73-24.41zM390.26 478.28c4.81-3.23 8.48-5.94 8.2-6.2-7.21-5.43-15.27-10.46-24.32-14.98-3.68-1.81-6.93-3.36-7.35-3.36-0.28 0-1.7 2.84-2.83 6.59-3.11 8.66-7.49 18.6-11.88 26.99-4.95 9.43-9.61 16.79-18.95 29.84-1.41 1.94-0.99 1.68 11.45-7.36 11.88-8.66 32.23-22.73 45.66-31.52zM272.77 697.22c2.26 4 2.55 4.26 3.25 3.36 0.42-0.52 3.68-5.17 7.07-10.2 20.07-29.2 35.06-53.22 48.78-77.64 6.04-10.81 12.14-22.4 13.54-25.73-28.28 11.2-54.93 22.49-80.19 34.01-1.04 1.16-1.52 2.95-2.62 7.74-2.41 10.85-2.83 28.41-0.71 38.49 2.12 10.2 6.08 21.31 10.89 29.97zM527.26 852.48c-27.85 11.88-55.42 21.57-83.28 29.32-22.05 6.2-43.83 11.24-89.07 20.54l-21.06 4.4 3.39 0.65c14.84 3.1 73.94 12.53 109.15 17.44 20.22 2.71 53.44 6.98 55.84 7.1 0.99 0.13 1.7-0.91 3.53-5.04 8.35-18.34 31.25-76.47 30.68-77.76h-0.14c-0.99 0.13-4.67 1.55-9.05 3.36zM211.41 786.73c25.17-32.16 43.12-55.8 42.84-56.06-0.14 0-6.79 1.42-14.99 3.23s-30.96 6.72-50.61 10.85c-35.35 7.49-73.1 15.64-75.22 16.15-1.41 0.38-1.41 3.48 0.14 9.69 3.25 13.3 11.45 27.9 23.61 41.72 5.8 6.72 18.8 18.86 26.3 24.54l6.36 4.91 5.94-8.4c3.25-4.65 9.05-12.4 12.86-17.31s13.99-18.08 22.76-29.32zM278.15 584.84c33.51-19.38 60.51-39.27 87.8-64.72 11.03-10.2 27.15-26.86 26.58-27.39-0.57-0.52-48.49 29.19-69.28 42.89-7.78 5.04-8.77 5.95-14.14 12.27-8.06 9.56-15.12 17.31-24.46 26.48-14.7 14.6-15.97 15.89-14.98 15.38 0.42-0.26 4.24-2.46 8.48-4.91zM130.4 747.72c29.41-7.36 123-32.42 123.99-33.2 0.15-0.13-2.12-4.52-4.95-9.82-10.18-19.11-13.57-33.07-12.44-51.93 0.28-4.26 0.98-10.46 1.55-13.82 0.84-4.59 0.98-5.64 0.44-5.67a1244.1 1244.1 0 0 0-16.74 8.17c-7.14 3.6-15.29 7.78-21.87 11.19-20.08 10.46-31.81 18.6-46.52 32.55-22.05 20.92-37.89 45.72-41.14 64.71-0.42 2.2-0.28 2.32 0.71 2.06 0.57-0.12 8.2-2.06 16.97-4.26zM498.13 854.81c15.27-4.4 36.05-10.72 37.04-11.24 0.57-0.39-1.13-0.65-4.24-0.91-20.5-1.55-55.28-6.97-79.32-12.53-19.51-4.53-34.07-8.53-52.45-14.85-7.63-2.59-13.85-4.66-13.99-4.53 0 0.13-3.96 5.43-8.62 11.89-16.82 23.51-37.04 48.31-57.4 70.53-4.1 4.4-7.49 8.4-7.49 8.66 0 0.52 4.67 1.68 6.08 1.42 0.57-0.12 10.18-2.58 21.35-5.55 60.51-15.89 134.73-35.91 159.05-42.88zM350.81 795.78c0.28-0.13-3.11-2.2-7.64-4.53-25.16-13.43-45.95-28.8-66.31-49.6l-4.52-4.65-25.02 27.52c-36.34 40.04-53.02 59.29-66.31 76.85l-4.1 5.42 2.54 1.68c1.41 0.91 2.69 1.68 2.83 1.68s18.66-5.81 41.14-13.05c40.01-12.66 126.4-40.68 127.38-41.33zM332.86 851.57c17.53-25.31 27.57-40.04 27.42-40.17-0.14-0.14-3.67 0.77-7.77 1.94-22.48 6.45-56.84 15.36-118.76 30.74-23.33 5.81-42.7 10.59-42.98 10.72-1.13 0.26 13.01 8.53 24.32 14.08 9.05 4.39 21.21 9.55 32.94 13.82 9.47 3.48 45.24 14.98 50.33 16.28l2.12 0.52 4.1-6.59c2.4-3.61 6.64-10.07 9.47-14.21 2.97-4.26 11.31-16.41 18.81-27.12z" p-id="9676"></path></svg>
