<?xml version="1.0" standalone="no"?><!DOCTYPE svg PUBLIC "-//W3C//DTD SVG 1.1//EN" "http://www.w3.org/Graphics/SVG/1.1/DTD/svg11.dtd"><svg t="1717552752475" class="icon" viewBox="0 0 1024 1024" version="1.1" xmlns="http://www.w3.org/2000/svg" p-id="9343" xmlns:xlink="http://www.w3.org/1999/xlink" width="200" height="200"><path d="M0 0m204.8 0l614.4 0q204.8 0 204.8 204.8l0 614.4q0 204.8-204.8 204.8l-614.4 0q-204.8 0-204.8-204.8l0-614.4q0-204.8 204.8-204.8Z" fill="#D22F3C" p-id="9344"></path><path d="M164.1472 304.9472l348.16-190.6176 347.6992 190.6176v430.6432l-347.6992 190.1568-348.16-190.1568z" fill="#FFFFFF" p-id="9345"></path><path d="M280.9344 382.6688v134.5024l343.9616-200.2432-113.3056-71.68z" fill="#D22F3C" p-id="9346"></path><path d="M396.3392 715.776l120.32 72.0896V360.6528l-120.32 73.6768z" fill="#D22F3C" p-id="9347"></path><path d="M748.544 649.5232l-120.32 72.0896V443.4944l120.32-75.3664z" fill="#D22F3C" p-id="9348"></path></svg>