<svg t="1717122687051" class="icon" viewBox="0 0 1024 1024" version="1.1" xmlns="http://www.w3.org/2000/svg" p-id="39345" width="200" height="200"><path d="M828.8 567.04v165.92c0 8.64-4.64 16.8-12.16 21.12l-154.24 88.32c-3.84 2.24-8 3.2-12.16 3.2s-8.32-0.96-12.16-3.2L496 760.96l-142.24 81.44c-3.68 2.24-7.84 3.2-12.16 3.2-4.16 0-8.32-0.96-12-3.2l-84.48-48.32V628.16c0-4.16 1.12-8 3.04-11.52 2.08-4 5.28-7.36 9.28-9.6l35.84-20.48 103.36-59.2 7.84-4.48v-159.84c0-4 0.96-8 3.04-11.52 2.08-4 5.28-7.36 9.28-9.6l35.84-20.48 103.36-59.2 15.04-8.64c7.52-4.32 16.64-4.32 24.16 0l84.48 48.32v154.72l82.08 47.04v24.96l67.04 38.4z" fill="#B3C8FE" p-id="39346"></path><path d="M816.64 535.04l-54.88-31.36-82.08-47.04V291.04c0-8.64-4.64-16.8-12.32-21.12l-154.24-88.32c-7.52-4.32-16.64-4.32-24.16 0l-154.4 88.32c-7.52 4.32-12.16 12.48-12.16 21.12v159.84l-147.04 84.16c-7.68 4.32-12.32 12.48-12.32 21.12v176.8c0 8.64 4.64 16.8 12.32 21.12l69.76 40 84.48 48.32c3.68 2.24 7.84 3.2 12 3.2 4.32 0 8.48-0.96 12.16-3.2L496 760.96l142.08 81.44c3.84 2.24 8 3.2 12.16 3.2s8.32-0.96 12.16-3.2l154.24-88.32c7.52-4.32 12.16-12.48 12.16-21.12V556.16c0-8.64-4.64-16.8-12.16-21.12zM317.28 779.2l-72.16-41.28-33.44-19.2v-121.6l36.48 19.52 8.8 4.8 60.32 36.8v120.96z m24.64-162.88l-48.64-29.76-11.52-7.04c-0.32-0.16-0.8-0.32-1.12-0.64l-43.2-23.36 104.16-59.68 55.04 31.52 50.24 28.8-104.96 60.16z m129.6 102.4l-105.44 60.48v-120.48l105.44-60.48v120.48z m5.12-204.64l-72.16-41.28-33.44-19.04v-121.76l36.48 19.52 8.8 4.8 60.32 36.8v120.96z m-24-192.64l-11.52-7.04c-0.32-0.16-0.8-0.32-1.12-0.64l-43.2-23.36 104.16-59.68 55.04 31.52 50.24 28.8-104.96 60.16-48.64-29.76z m178.24 11.68v117.76l-105.44 60.32V393.6l105.44-60.48z m-4.96 446.08l-105.6-60.48v-121.6l45.12 24.32 60.48 36.8v120.96z m24.64-162.88l-60.32-36.8a3.36 3.36 0 0 1-0.96-0.64l-40.64-21.92 104.16-59.68 102.72 58.88-104.96 60.16z m129.6 102.4l-105.6 60.48v-120.48l105.6-60.48v120.48z" fill="#5186F5" p-id="39347"></path></svg>
